<?xml version="1.0" standalone="no"?>
<!DOCTYPE svg PUBLIC "-//W3C//DTD SVG 20010904//EN"
 "http://www.w3.org/TR/2001/REC-SVG-20010904/DTD/svg10.dtd">
<svg version="1.0" xmlns="http://www.w3.org/2000/svg"
 width="110.000000pt" height="110.000000pt" viewBox="0 0 110.000000 110.000000"
 preserveAspectRatio="xMidYMid meet">
<metadata>
Created by potrace 1.11, written by Peter Selinger 2001-2013
</metadata>
<g transform="translate(0.000000,110.000000) scale(0.100000,-0.100000)"
fill="#000000" stroke="none">
<path d="M433 1026 c-129 -33 -264 -137 -325 -252 -116 -218 -55 -494 143
-639 199 -147 463 -130 647 40 78 72 136 184 153 293 34 229 -103 457 -328
542 -72 28 -214 36 -290 16z m245 -28 c25 -7 31 -14 27 -28 -8 -25 26 -36 42
-14 11 16 17 14 68 -20 57 -37 62 -45 45 -62 -17 -17 16 -40 34 -24 12 9 20 4
45 -30 38 -52 47 -80 31 -90 -19 -12 -3 -43 19 -37 15 4 20 -4 30 -45 15 -66
14 -88 -4 -88 -9 0 -15 -9 -15 -25 0 -16 6 -25 15 -25 18 0 19 -38 1 -95 -8
-27 -17 -39 -28 -37 -20 3 -32 -26 -17 -44 17 -21 -56 -131 -76 -114 -20 16
-38 2 -31 -24 4 -18 -5 -29 -52 -60 -45 -30 -58 -34 -60 -22 -4 19 -7 19 -32
6 -11 -6 -17 -17 -14 -24 4 -10 -9 -17 -46 -25 -67 -15 -80 -14 -80 4 0 9 -9
15 -25 15 -16 0 -25 -6 -25 -15 0 -18 -22 -19 -88 -4 -39 9 -48 15 -45 29 3
11 -3 19 -16 23 -12 3 -21 1 -21 -4 0 -17 -26 -9 -74 21 -34 22 -46 35 -42 47
9 22 -13 46 -29 33 -10 -8 -20 -1 -42 27 -46 58 -55 80 -39 86 23 9 8 49 -15
42 -18 -6 -27 15 -43 103 -5 27 -3 32 14 32 13 0 20 7 20 20 0 13 -7 20 -20
20 -18 0 -20 4 -14 43 12 74 20 92 38 89 21 -4 32 24 17 42 -10 11 -8 23 8 53
34 63 48 78 64 64 19 -15 46 14 29 31 -8 8 -1 19 26 41 53 43 81 54 92 37 11
-18 40 -5 40 19 0 15 10 23 38 30 54 16 92 14 92 -4 0 -9 9 -15 25 -15 18 0
25 5 25 19 0 17 5 19 38 14 20 -2 52 -9 70 -15z"/>
<path d="M435 944 c-27 -9 -54 -19 -58 -23 -5 -5 15 -29 43 -53 52 -45 53 -46
138 -50 55 -3 99 -11 119 -21 205 -108 213 -388 16 -499 -140 -79 -309 -29
-388 113 -26 47 -30 64 -30 129 0 62 5 85 26 126 l26 51 -22 62 c-13 34 -26
65 -30 69 -4 4 -22 -11 -41 -33 -79 -93 -116 -221 -95 -336 24 -141 109 -253
241 -317 71 -35 80 -37 170 -36 111 0 175 21 255 82 116 88 171 209 163 355
-10 163 -89 282 -235 354 -66 33 -85 37 -161 40 -59 2 -103 -2 -137 -13z"/>
<path d="M300 911 c0 -24 162 -456 177 -473 9 -10 33 -23 53 -29 77 -23 156
45 146 126 -4 35 -16 51 -103 133 -200 189 -273 254 -273 243z"/>
</g>
</svg>
